<svg width="636" height="206" viewBox="0 0 636 206" fill="none" xmlns="http://www.w3.org/2000/svg">
<path d="M165.825 73.2361L181.345 120.916H181.745L197.425 73.2361H204.225L186.145 128.516H176.545L158.225 73.2361H165.825ZM217.502 83.4761C216.648 84.3294 215.608 84.7561 214.382 84.7561C213.155 84.7561 212.115 84.3294 211.262 83.4761C210.408 82.5694 209.982 81.5028 209.982 80.2761C209.982 79.0494 210.408 78.0094 211.262 77.1561C212.168 76.2494 213.208 75.7961 214.382 75.7961C215.555 75.7961 216.568 76.2494 217.422 77.1561C218.328 78.0094 218.782 79.0494 218.782 80.2761C218.782 81.5028 218.355 82.5694 217.502 83.4761ZM211.022 92.0361H217.822V128.516H211.022V92.0361ZM249.991 106.676V103.156C249.991 98.8361 247.751 96.6761 243.271 96.6761C239.751 96.6761 236.071 97.8228 232.231 100.116L229.911 95.3161C234.391 92.4894 239.218 91.0761 244.391 91.0761C248.018 91.0761 250.978 92.0094 253.271 93.8761C255.618 95.6894 256.791 98.5161 256.791 102.356V128.516H252.471L250.471 123.716C248.765 125.476 246.738 126.889 244.391 127.956C242.045 128.969 239.911 129.476 237.991 129.476C234.685 129.476 232.045 128.569 230.071 126.756C228.098 124.943 227.111 122.569 227.111 119.636C227.111 110.996 234.738 106.676 249.991 106.676ZM236.711 114.436C235.698 115.343 235.005 116.169 234.631 116.916C234.311 117.609 234.151 118.543 234.151 119.716C234.151 120.836 234.631 121.823 235.591 122.676C236.605 123.476 237.911 123.876 239.511 123.876C242.871 123.876 246.365 122.383 249.991 119.396V111.396C243.271 111.503 238.845 112.516 236.711 114.436ZM286.68 98.4361C283.96 97.2628 281.4 96.6761 279 96.6761C274.36 96.6761 272.04 98.0894 272.04 100.916C272.04 103.369 275.133 105.743 281.32 108.036C283.613 108.889 285.72 110.223 287.64 112.036C289.613 113.849 290.6 116.036 290.6 118.596C290.6 122.276 289.4 125.023 287 126.836C284.6 128.596 281.267 129.476 277 129.476C272.733 129.476 268.573 128.303 264.52 125.956L266.52 120.996C269.88 122.916 273.693 123.876 277.96 123.876C279.773 123.876 281.24 123.503 282.36 122.756C283.48 121.956 284.04 120.889 284.04 119.556C284.04 118.223 283.4 117.076 282.12 116.116C280.84 115.156 279.293 114.303 277.48 113.556C275.667 112.809 273.853 112.009 272.04 111.156C270.227 110.249 268.68 108.996 267.4 107.396C266.12 105.796 265.48 103.903 265.48 101.716C265.48 98.3028 266.627 95.6894 268.92 93.8761C271.267 92.0094 274.227 91.0761 277.8 91.0761C281.373 91.0761 285 91.8761 288.68 93.4761L286.68 98.4361ZM305.143 71.0761V95.7961C309.143 92.6494 313.436 91.0761 318.023 91.0761C321.596 91.0761 324.423 91.9828 326.503 93.7961C328.636 95.5561 329.703 97.8761 329.703 100.756V128.516H322.903V101.236C322.903 99.8494 322.343 98.7828 321.223 98.0361C320.156 97.2894 318.716 96.9161 316.903 96.9161C313.116 96.9161 309.196 98.2761 305.143 100.996V128.516H298.343V71.0761H305.143ZM355.569 123.876C359.409 123.876 363.249 122.729 367.089 120.436L369.409 125.236C364.929 128.063 360.129 129.476 355.009 129.476C349.942 129.476 345.915 127.876 342.929 124.676C339.942 121.423 338.449 116.756 338.449 110.676C338.449 104.596 339.995 99.8228 343.089 96.3561C346.182 92.8361 350.289 91.0761 355.409 91.0761C360.049 91.0761 363.702 92.5161 366.369 95.3961C367.489 96.5694 368.422 98.2761 369.169 100.516C369.969 102.756 370.369 105.396 370.369 108.436L367.889 111.236H345.249C345.409 119.663 348.849 123.876 355.569 123.876ZM363.649 106.196C363.649 103.209 362.875 100.809 361.329 98.9961C359.782 97.1828 357.729 96.2761 355.169 96.2761C352.662 96.2761 350.529 97.1828 348.769 98.9961C347.009 100.756 345.942 103.156 345.569 106.196H363.649ZM393.381 123.876C397.221 123.876 401.061 122.729 404.901 120.436L407.221 125.236C402.741 128.063 397.941 129.476 392.821 129.476C387.755 129.476 383.728 127.876 380.741 124.676C377.755 121.423 376.261 116.756 376.261 110.676C376.261 104.596 377.808 99.8228 380.901 96.3561C383.995 92.8361 388.101 91.0761 393.221 91.0761C397.861 91.0761 401.515 92.5161 404.181 95.3961C405.301 96.5694 406.235 98.2761 406.981 100.516C407.781 102.756 408.181 105.396 408.181 108.436L405.701 111.236H383.061C383.221 119.663 386.661 123.876 393.381 123.876ZM401.461 106.196C401.461 103.209 400.688 100.809 399.141 98.9961C397.595 97.1828 395.541 96.2761 392.981 96.2761C390.475 96.2761 388.341 97.1828 386.581 98.9961C384.821 100.756 383.755 103.156 383.381 106.196H401.461ZM424.714 97.0761V118.996C424.714 122.196 426.234 123.796 429.274 123.796C431.034 123.796 433.14 123.289 435.594 122.276L436.474 127.636C433.86 128.863 431.114 129.476 428.234 129.476C425.354 129.476 422.954 128.623 421.034 126.916C419.114 125.156 418.154 122.489 418.154 118.916V97.0761H413.114V92.0361H418.154V84.8361L423.114 80.2761H424.714V92.0361H435.034V97.0761H424.714ZM462.383 98.4361C459.663 97.2628 457.103 96.6761 454.703 96.6761C450.063 96.6761 447.743 98.0894 447.743 100.916C447.743 103.369 450.836 105.743 457.023 108.036C459.316 108.889 461.423 110.223 463.343 112.036C465.316 113.849 466.303 116.036 466.303 118.596C466.303 122.276 465.103 125.023 462.703 126.836C460.303 128.596 456.97 129.476 452.703 129.476C448.436 129.476 444.276 128.303 440.223 125.956L442.223 120.996C445.583 122.916 449.396 123.876 453.663 123.876C455.476 123.876 456.943 123.503 458.063 122.756C459.183 121.956 459.743 120.889 459.743 119.556C459.743 118.223 459.103 117.076 457.823 116.116C456.543 115.156 454.996 114.303 453.183 113.556C451.37 112.809 449.556 112.009 447.743 111.156C445.93 110.249 444.383 108.996 443.103 107.396C441.823 105.796 441.183 103.903 441.183 101.716C441.183 98.3028 442.33 95.6894 444.623 93.8761C446.97 92.0094 449.93 91.0761 453.503 91.0761C457.076 91.0761 460.703 91.8761 464.383 93.4761L462.383 98.4361Z" fill="#15803D"/>
<path d="M478.126 128.036C477.326 128.836 476.34 129.236 475.166 129.236C473.993 129.236 473.006 128.836 472.206 128.036C471.406 127.183 471.006 126.143 471.006 124.916C471.006 123.689 471.406 122.676 472.206 121.876C473.006 121.076 473.993 120.676 475.166 120.676C476.34 120.676 477.326 121.076 478.126 121.876C478.98 122.676 479.406 123.689 479.406 124.916C479.406 126.143 478.98 127.183 478.126 128.036Z" fill="black"/>
<mask id="path-2-inside-1_64_38" fill="white">
<path d="M585.12 6.64514H537.874V206H585.12V6.64514Z"/>
</mask>
<path d="M584.12 206V6.64514H586.12V206H584.12Z" fill="url(#paint0_linear_64_38)" mask="url(#path-2-inside-1_64_38)"/>
<mask id="path-4-inside-2_64_38" fill="white">
<path d="M0 36.5483L0 79.7419L636 79.7419V36.5483L0 36.5483Z"/>
</mask>
<path d="M636 37.5483L0 37.5483L0 35.5483L636 35.5483V37.5483Z" fill="url(#paint1_linear_64_38)" mask="url(#path-4-inside-2_64_38)"/>
<mask id="path-6-inside-3_64_38" fill="white">
<path d="M636 159.484V116.29L0 116.29V159.484L636 159.484Z"/>
</mask>
<path d="M0 158.484L636 158.484V160.484L0 160.484V158.484Z" fill="url(#paint2_linear_64_38)" mask="url(#path-6-inside-3_64_38)"/>
<mask id="path-8-inside-4_64_38" fill="white">
<path d="M65.4171 199.355H112.663L112.663 1.52588e-05H65.4171L65.4171 199.355Z"/>
</mask>
<path d="M66.4171 1.52588e-05L66.4171 199.355H64.4171L64.4171 1.52588e-05H66.4171Z" fill="url(#paint3_linear_64_38)" mask="url(#path-8-inside-4_64_38)"/>
<defs>
<linearGradient id="paint0_linear_64_38" x1="561.497" y1="6.64514" x2="561.497" y2="206" gradientUnits="userSpaceOnUse">
<stop stop-color="#14532D" stop-opacity="0"/>
<stop offset="0.302083" stop-color="#14532D"/>
<stop offset="0.6875" stop-color="#14532D"/>
<stop offset="1" stop-color="#14532D" stop-opacity="0"/>
</linearGradient>
<linearGradient id="paint1_linear_64_38" x1="0" y1="58.1451" x2="636" y2="58.1451" gradientUnits="userSpaceOnUse">
<stop stop-color="#14532D" stop-opacity="0"/>
<stop offset="0.140625" stop-color="#14532D"/>
<stop offset="0.875" stop-color="#14532D"/>
<stop offset="1" stop-color="#14532D" stop-opacity="0"/>
</linearGradient>
<linearGradient id="paint2_linear_64_38" x1="636" y1="137.887" x2="0" y2="137.887" gradientUnits="userSpaceOnUse">
<stop stop-color="#14532D" stop-opacity="0"/>
<stop offset="0.140625" stop-color="#14532D"/>
<stop offset="0.875" stop-color="#14532D"/>
<stop offset="1" stop-color="#14532D" stop-opacity="0"/>
</linearGradient>
<linearGradient id="paint3_linear_64_38" x1="89.04" y1="199.355" x2="89.04" y2="1.52588e-05" gradientUnits="userSpaceOnUse">
<stop stop-color="#14532D" stop-opacity="0"/>
<stop offset="0.348958" stop-color="#14532D"/>
<stop offset="0.703125" stop-color="#14532D"/>
<stop offset="1" stop-color="#14532D" stop-opacity="0"/>
</linearGradient>
</defs>
</svg>
