<svg width="70" height="60" viewBox="0 0 70 60" fill="none" xmlns="http://www.w3.org/2000/svg">
<path d="M30.4 22.416L35.056 36.72H35.176L39.88 22.416H41.92L36.496 39H33.616L28.12 22.416H30.4Z" fill="#15803D"/>
<path d="M44.8951 38.856C44.6551 39.096 44.3591 39.216 44.0071 39.216C43.6551 39.216 43.3591 39.096 43.1191 38.856C42.8791 38.6 42.7591 38.288 42.7591 37.92C42.7591 37.552 42.8791 37.248 43.1191 37.008C43.3591 36.768 43.6551 36.648 44.0071 36.648C44.3591 36.648 44.6551 36.768 44.8951 37.008C45.1511 37.248 45.2791 37.552 45.2791 37.92C45.2791 38.288 45.1511 38.6 44.8951 38.856Z" fill="black"/>
<mask id="path-2-inside-1_64_49" fill="white">
<path d="M53 0H40V60H53V0Z"/>
</mask>
<path d="M52 60V0H54V60H52Z" fill="url(#paint0_linear_64_49)" mask="url(#path-2-inside-1_64_49)"/>
<mask id="path-4-inside-2_64_49" fill="white">
<path d="M0 11L0 24L70 24V11L0 11Z"/>
</mask>
<path d="M70 12L0 12L0 10L70 10V12Z" fill="url(#paint1_linear_64_49)" mask="url(#path-4-inside-2_64_49)"/>
<mask id="path-6-inside-3_64_49" fill="white">
<path d="M70 48V35L0 35V48L70 48Z"/>
</mask>
<path d="M0 47L70 47V49L0 49V47Z" fill="url(#paint2_linear_64_49)" mask="url(#path-6-inside-3_64_49)"/>
<mask id="path-8-inside-4_64_49" fill="white">
<path d="M18 60H31L31 0H18L18 60Z"/>
</mask>
<path d="M19 0L19 60H17L17 0H19Z" fill="url(#paint3_linear_64_49)" mask="url(#path-8-inside-4_64_49)"/>
<defs>
<linearGradient id="paint0_linear_64_49" x1="46.5" y1="0" x2="46.5" y2="60" gradientUnits="userSpaceOnUse">
<stop stop-color="#14532D" stop-opacity="0"/>
<stop offset="0.302083" stop-color="#14532D"/>
<stop offset="0.6875" stop-color="#14532D"/>
<stop offset="1" stop-color="#14532D" stop-opacity="0"/>
</linearGradient>
<linearGradient id="paint1_linear_64_49" x1="0" y1="17.5" x2="70" y2="17.5" gradientUnits="userSpaceOnUse">
<stop stop-color="#14532D" stop-opacity="0"/>
<stop offset="0.140625" stop-color="#14532D"/>
<stop offset="0.875" stop-color="#14532D"/>
<stop offset="1" stop-color="#14532D" stop-opacity="0"/>
</linearGradient>
<linearGradient id="paint2_linear_64_49" x1="70" y1="41.5" x2="0" y2="41.5" gradientUnits="userSpaceOnUse">
<stop stop-color="#14532D" stop-opacity="0"/>
<stop offset="0.140625" stop-color="#14532D"/>
<stop offset="0.875" stop-color="#14532D"/>
<stop offset="1" stop-color="#14532D" stop-opacity="0"/>
</linearGradient>
<linearGradient id="paint3_linear_64_49" x1="24.5" y1="60" x2="24.5" y2="0" gradientUnits="userSpaceOnUse">
<stop stop-color="#14532D" stop-opacity="0"/>
<stop offset="0.348958" stop-color="#14532D"/>
<stop offset="0.703125" stop-color="#14532D"/>
<stop offset="1" stop-color="#14532D" stop-opacity="0"/>
</linearGradient>
</defs>
</svg>
